#N canvas 431 90 1133 714 10;
#X obj -24 187 gripd;
#X msg -24 98 set_path C:/Program Files/pd/extra/gripd;
#X msg -71 128 lock;
#X msg -72 151 unlock;
#X text -68 6 VOICE FACTORY;
#X obj -3 30 loadbang;
#X obj -26 513 bng 15 250 50 0 empty empty empty 17 7 0 10 -262144
-1 -1;
#X obj -26 317 vradio 15 1 0 5 empty next_system_state empty 0 -8 0
10 -262144 -1 -1 0;
#X text -54 297 system state;
#X text -4 315 <= start screen;
#X text -4 330 <= backwards;
#X text -3 346 <= Dalek;
#X text -3 362 <= fun;
#X floatatom -26 410 5 0 0 0 - - -;
#N canvas 1130 178 790 342 startscreen 0;
#X msg 42 104 Learn to talk backwards;
#X obj 42 129 s rbutton0;
#X msg 125 129 Speak like a Dalek;
#X obj 125 154 s rbutton1;
#X obj 125 37 bng 15 250 50 0 empty empty empty 17 7 0 10 -262144 -1
-1;
#X obj 208 181 s rbutton2;
#X text 146 34 <= start screen;
#X obj 125 9 inlet;
#X obj -30 104 s rtext6;
#X msg -30 78 What would you like to do?;
#X msg 441 231 Press one of the buttons;
#X obj 441 257 s rtext1;
#X msg -17 205 100;
#X msg 142 204 0;
#X obj -17 245 s rslider0;
#X obj -5 267 s rsslider0;
#X obj 62 244 s rslider1;
#X obj 73 266 s rsslider1;
#X obj 142 243 s rslider2;
#X obj 154 265 s rsslider2;
#X obj 221 242 s rslider3;
#X obj 233 264 s rsslider3;
#X msg 208 154 Have fun with your voice;
#X obj 330 87 s rtext2;
#X msg 330 62 .;
#X obj 344 110 s rtext3;
#X obj 365 131 s rtext4;
#X obj 379 155 s rtext5;
#X msg 480 81 show;
#X obj 480 111 s rimage20;
#X obj 480 52 t b b;
#X obj 516 283 s rtext0;
#X msg 516 257 Prof Moore's Digital Voice Factory;
#X msg 519 81 ARTiculate_500x500.gif;
#X obj 286 209 s rbutton3;
#X msg 286 182 Sound like a robot;
#X obj 552 110 s rimage21;
#X connect 0 0 1 0;
#X connect 2 0 3 0;
#X connect 4 0 9 0;
#X connect 4 0 0 0;
#X connect 4 0 2 0;
#X connect 4 0 22 0;
#X connect 4 0 10 0;
#X connect 4 0 12 0;
#X connect 4 0 13 0;
#X connect 4 0 30 0;
#X connect 4 0 32 0;
#X connect 4 0 24 0;
#X connect 4 0 35 0;
#X connect 7 0 4 0;
#X connect 9 0 8 0;
#X connect 10 0 11 0;
#X connect 12 0 14 0;
#X connect 12 0 15 0;
#X connect 12 0 16 0;
#X connect 12 0 17 0;
#X connect 13 0 18 0;
#X connect 13 0 19 0;
#X connect 13 0 20 0;
#X connect 13 0 21 0;
#X connect 22 0 5 0;
#X connect 24 0 23 0;
#X connect 24 0 25 0;
#X connect 24 0 26 0;
#X connect 24 0 27 0;
#X connect 28 0 29 0;
#X connect 28 0 36 0;
#X connect 30 0 28 0;
#X connect 30 1 33 0;
#X connect 32 0 31 0;
#X connect 33 0 29 0;
#X connect 33 0 36 0;
#X connect 35 0 34 0;
#X restore -26 617 pd startscreen;
#N canvas 955 213 725 339 backwards 0;
#X obj 52 139 s rbutton0;
#X obj 135 164 s rbutton1;
#X obj 135 47 bng 15 250 50 0 empty empty empty 17 7 0 10 -262144 -1
-1;
#X obj 135 19 inlet;
#X text 156 44 <= backwards;
#X msg 52 114 Record;
#X msg -20 88 Learn to speak backwards;
#X obj -20 114 s rtext6;
#X obj 296 217 s rtext1;
#X msg 135 139 -;
#X msg 445 93 show;
#X obj 445 123 s rimage20;
#X obj 445 64 t b b;
#X msg 218 164 More fun stuff;
#X msg 484 93 backwards_500x500.gif;
#X obj 143 192 s rbutton2;
#X obj 218 191 s rbutton3;
#X msg 296 190 First record some speech. Then listen to it played backwards
and re-record your imitation of what you heard.;
#X connect 2 0 6 0;
#X connect 2 0 5 0;
#X connect 2 0 9 0;
#X connect 2 0 13 0;
#X connect 2 0 17 0;
#X connect 2 0 12 0;
#X connect 3 0 2 0;
#X connect 5 0 0 0;
#X connect 6 0 7 0;
#X connect 9 0 1 0;
#X connect 9 0 15 0;
#X connect 10 0 11 0;
#X connect 12 0 10 0;
#X connect 12 1 14 0;
#X connect 13 0 16 0;
#X connect 14 0 11 0;
#X connect 17 0 8 0;
#X restore -8 597 pd backwards;
#N canvas 1234 40 686 368 Dalek 0;
#X obj 62 149 s rbutton0;
#X obj 145 174 s rbutton1;
#X obj 145 57 bng 15 250 50 0 empty empty empty 17 7 0 10 -262144 -1
-1;
#X obj 145 29 inlet;
#X msg 62 124 Record;
#X text 166 54 <= Dalek;
#X obj -10 124 s rtext6;
#X obj 311 237 s rtext1;
#X msg 145 149 -;
#X obj 89 259 s rslider2;
#X msg 89 220 30;
#X obj 5 259 s rslider1;
#X msg 5 222 130;
#X msg 311 202 First record some appropriate speech. Then press 'Playback'
to hear yourself talking like a Dalek.;
#X obj 16 281 s sslider1;
#X obj 101 281 s sslider2;
#X msg 455 103 show;
#X obj 455 133 s rimage20;
#X obj 455 74 t b b;
#X msg 228 174 More fun stuff;
#X msg 494 103 dalek_500x500.gif;
#X msg -10 98 Speak like a Dalek;
#X obj 154 199 s rbutton2;
#X obj 228 201 s rbutton3;
#X connect 2 0 21 0;
#X connect 2 0 4 0;
#X connect 2 0 8 0;
#X connect 2 0 19 0;
#X connect 2 0 13 0;
#X connect 2 0 18 0;
#X connect 2 0 12 0;
#X connect 2 0 10 0;
#X connect 3 0 2 0;
#X connect 4 0 0 0;
#X connect 8 0 1 0;
#X connect 8 0 22 0;
#X connect 10 0 9 0;
#X connect 10 0 15 0;
#X connect 12 0 11 0;
#X connect 12 0 14 0;
#X connect 13 0 7 0;
#X connect 16 0 17 0;
#X connect 18 0 16 0;
#X connect 18 1 20 0;
#X connect 19 0 23 0;
#X connect 20 0 17 0;
#X connect 21 0 6 0;
#X restore 11 577 pd Dalek;
#N canvas 810 187 714 332 fun 0;
#X obj 72 159 s rbutton0;
#X obj 155 184 s rbutton1;
#X obj 155 67 bng 15 250 50 0 empty empty empty 17 7 0 10 -262144 -1
-1;
#X obj 155 39 inlet;
#X msg 72 134 Record;
#X text 176 64 <= fun;
#X obj 322 262 s rtext1;
#X obj 0 134 s rtext6;
#X msg 155 160 -;
#X msg 0 108 Have fun with your voice!;
#X obj 378 161 s rtext2;
#X obj 436 161 s rtext3;
#X obj 493 161 s rtext4;
#X obj 569 160 s rtext5;
#X msg 436 136 Pitch;
#X obj 535 104 s rimage20;
#X msg 535 75 hide;
#X msg 238 184 More fun stuff;
#X msg 378 137 Speed;
#X msg 493 135 Modulation;
#X msg 569 135 Echo;
#X obj 166 208 s rbutton2;
#X obj 238 211 s rbutton3;
#X obj 605 104 s rimage21;
#X msg 322 213 First record some speech. Then play around with the
buttons on the left and right to create wierd effects.;
#X connect 2 0 9 0;
#X connect 2 0 4 0;
#X connect 2 0 8 0;
#X connect 2 0 17 0;
#X connect 2 0 24 0;
#X connect 2 0 18 0;
#X connect 2 0 14 0;
#X connect 2 0 19 0;
#X connect 2 0 20 0;
#X connect 2 0 16 0;
#X connect 3 0 2 0;
#X connect 4 0 0 0;
#X connect 8 0 1 0;
#X connect 8 0 21 0;
#X connect 9 0 7 0;
#X connect 14 0 11 0;
#X connect 16 0 15 0;
#X connect 16 0 23 0;
#X connect 17 0 22 0;
#X connect 18 0 10 0;
#X connect 19 0 12 0;
#X connect 20 0 13 0;
#X connect 24 0 6 0;
#X restore 30 556 pd fun;
#X obj -8 513 bng 15 250 50 0 empty empty empty 17 7 0 10 -262144 -1
-1;
#X obj 11 513 bng 15 250 50 0 empty empty empty 17 7 0 10 -262144 -1
-1;
#X obj 30 513 bng 15 250 50 0 empty empty empty 17 7 0 10 -262144 -1
-1;
#X obj 1 463 value system_state;
#X obj -26 436 t f f;
#N canvas 1050 23 824 701 buttons 0;
#X obj -22 94 bng 15 250 50 0 empty empty empty 17 7 0 10 -262144 -1
-1;
#X obj -22 24 r sbutton0;
#X obj -22 116 spigot;
#X obj 11 93 == 0;
#X obj -22 139 bng 15 250 50 0 empty empty empty 17 7 0 10 -262144
-1 -1;
#X obj -21 280 bng 15 250 50 0 empty empty empty 17 7 0 10 -262144
-1 -1;
#X obj -21 302 spigot;
#X obj 12 279 == 0;
#X obj -21 325 bng 15 250 50 0 empty empty empty 17 7 0 10 -262144
-1 -1;
#X obj -21 447 bng 15 250 50 0 empty empty empty 17 7 0 10 -262144
-1 -1;
#X obj -21 494 spigot;
#X obj 12 471 == 0;
#X obj -21 517 bng 15 250 50 0 empty empty empty 17 7 0 10 -262144
-1 -1;
#X obj -21 210 r sbutton1;
#X obj -21 400 r sbutton2;
#X msg -22 160 \; next_system_state 1;
#X msg -21 346 \; next_system_state 2;
#X msg -21 538 \; next_system_state 3;
#X obj 12 446 value system_state;
#X obj 12 256 value system_state;
#X obj 11 70 value system_state;
#X obj -21 423 t b b;
#X obj -21 233 t b b;
#X obj -22 47 t b b;
#X obj 114 116 spigot;
#X obj 114 139 bng 15 250 50 0 empty empty empty 17 7 0 10 -262144
-1 -1;
#X msg 114 159 \; lrp 1;
#X obj 147 93 > 0;
#X obj 128 302 spigot;
#X obj 128 325 bng 15 250 50 0 empty empty empty 17 7 0 10 -262144
-1 -1;
#X obj 161 279 > 0;
#X msg 128 345 \; lrp 2;
#X obj 217 31 r speedbutt1;
#X msg 217 58 300;
#X obj 217 204 s sslider0;
#X obj 249 56 r speedbutt2;
#X obj 283 82 r speedbutt3;
#X obj 317 107 r speedbutt4;
#X obj 352 134 r speedbutt5;
#X msg 283 108 100;
#X msg 249 83 200;
#X msg 352 161 25;
#X msg 317 134 50;
#X msg 284 316 100;
#X obj 218 412 s sslider1;
#X obj 218 239 r spitchbutt1;
#X obj 250 264 r spitchbutt2;
#X obj 284 290 r spitchbutt3;
#X obj 318 315 r spitchbutt4;
#X obj 353 342 r spitchbutt5;
#X msg 218 266 300;
#X msg 250 291 200;
#X msg 318 342 80;
#X msg 353 369 60;
#X obj 462 204 s sslider2;
#X obj 463 412 s sslider3;
#X obj 462 31 r smodbutt1;
#X obj 494 56 r smodbutt2;
#X obj 528 82 r smodbutt3;
#X obj 562 107 r smodbutt4;
#X obj 597 134 r smodbutt5;
#X obj 463 239 r sechobutt1;
#X obj 495 264 r sechobutt2;
#X obj 529 290 r sechobutt3;
#X obj 563 315 r sechobutt4;
#X obj 598 342 r sechobutt5;
#X msg 598 369 0;
#X msg 463 266 400;
#X msg 495 291 300;
#X msg 529 316 200;
#X msg 563 342 100;
#X msg 597 161 0;
#X msg 462 58 50;
#X msg 494 83 40;
#X msg 528 108 30;
#X msg 562 134 15;
#X obj -21 643 bng 15 250 50 0 empty empty empty 17 7 0 10 -262144
-1 -1;
#X obj -21 690 spigot;
#X obj 12 667 == 0;
#X obj -21 713 bng 15 250 50 0 empty empty empty 17 7 0 10 -262144
-1 -1;
#X obj 12 642 value system_state;
#X obj -21 619 t b b;
#X obj 112 689 spigot;
#X obj 195 712 bng 15 250 50 0 empty empty empty 17 7 0 10 -262144
-1 -1;
#X msg 195 733 \; next_system_state 0;
#X obj 145 666 > 0;
#X obj -21 596 r sbutton3;
#X msg -21 734 \; next_system_state 4;
#X obj 228 641 r lrp;
#X obj 228 666 == 0;
#X obj 195 690 spigot;
#X connect 0 0 2 0;
#X connect 0 0 24 0;
#X connect 1 0 23 0;
#X connect 2 0 4 0;
#X connect 3 0 2 1;
#X connect 4 0 15 0;
#X connect 5 0 6 0;
#X connect 5 0 28 0;
#X connect 6 0 8 0;
#X connect 7 0 6 1;
#X connect 8 0 16 0;
#X connect 9 0 10 0;
#X connect 10 0 12 0;
#X connect 11 0 10 1;
#X connect 12 0 17 0;
#X connect 13 0 22 0;
#X connect 14 0 21 0;
#X connect 18 0 11 0;
#X connect 19 0 7 0;
#X connect 19 0 30 0;
#X connect 20 0 3 0;
#X connect 20 0 27 0;
#X connect 21 0 9 0;
#X connect 21 1 18 0;
#X connect 22 0 5 0;
#X connect 22 1 19 0;
#X connect 23 0 0 0;
#X connect 23 1 20 0;
#X connect 24 0 25 0;
#X connect 25 0 26 0;
#X connect 27 0 24 1;
#X connect 28 0 29 0;
#X connect 29 0 31 0;
#X connect 30 0 28 1;
#X connect 32 0 33 0;
#X connect 33 0 34 0;
#X connect 35 0 40 0;
#X connect 36 0 39 0;
#X connect 37 0 42 0;
#X connect 38 0 41 0;
#X connect 39 0 34 0;
#X connect 40 0 34 0;
#X connect 41 0 34 0;
#X connect 42 0 34 0;
#X connect 43 0 44 0;
#X connect 45 0 50 0;
#X connect 46 0 51 0;
#X connect 47 0 43 0;
#X connect 48 0 52 0;
#X connect 49 0 53 0;
#X connect 50 0 44 0;
#X connect 51 0 44 0;
#X connect 52 0 44 0;
#X connect 53 0 44 0;
#X connect 56 0 72 0;
#X connect 57 0 73 0;
#X connect 58 0 74 0;
#X connect 59 0 75 0;
#X connect 60 0 71 0;
#X connect 61 0 67 0;
#X connect 62 0 68 0;
#X connect 63 0 69 0;
#X connect 64 0 70 0;
#X connect 65 0 66 0;
#X connect 66 0 55 0;
#X connect 67 0 55 0;
#X connect 68 0 55 0;
#X connect 69 0 55 0;
#X connect 70 0 55 0;
#X connect 71 0 54 0;
#X connect 72 0 54 0;
#X connect 73 0 54 0;
#X connect 74 0 54 0;
#X connect 75 0 54 0;
#X connect 76 0 77 0;
#X connect 76 0 82 0;
#X connect 77 0 79 0;
#X connect 78 0 77 1;
#X connect 79 0 87 0;
#X connect 80 0 78 0;
#X connect 80 0 85 0;
#X connect 81 0 76 0;
#X connect 81 1 80 0;
#X connect 82 0 90 0;
#X connect 83 0 84 0;
#X connect 85 0 82 1;
#X connect 86 0 81 0;
#X connect 88 0 89 0;
#X connect 89 0 90 1;
#X connect 90 0 83 0;
#X restore 142 398 pd buttons;
#X obj 282 412 s rgauge0;
#X msg -24 257 \; next_system_state 0;
#X obj 281 257 adc~;
#X msg 49 57 \; pd dsp 1;
#X obj 282 287 env~;
#X text 299 193 <= playback;
#X obj 279 164 vradio 15 1 0 3 lrp lrp empty 0 -8 0 10 -262144 -1 -1
0;
#X text 299 178 <= record;
#X text 298 162 <= listen;
#X floatatom 282 313 5 0 0 0 - - -;
#X obj 282 387 spigot;
#X msg 23 410 0;
#X obj 23 436 s lrp;
#N canvas 1152 109 768 366 vocoder 0;
#X floatatom 380 67 7 0 0 0 - location-set -;
#N canvas 1099 9 821 693 fft-analysis 0;
#X obj 51 477 *~;
#X obj 18 477 *~;
#X obj 18 499 -~;
#X obj 167 475 *~;
#X obj 136 475 *~;
#X obj 136 497 +~;
#X obj 109 193 *~;
#X obj 78 193 *~;
#X obj 50 193 *~;
#X obj 19 193 *~;
#X obj 19 218 +~;
#X obj 127 379 *~;
#X obj 20 622 *~;
#X obj 238 430 rfft~;
#X obj 108 161 rfft~;
#X obj 19 564 rifft~;
#X obj 21 646 outlet~;
#X obj 97 379 *~;
#X obj 97 401 +~;
#X obj 124 218 -~;
#X obj 18 431 *~;
#X obj 51 432 *~;
#X obj 127 622 r window-size;
#X obj 426 595 r window-size;
#X obj 426 644 block~;
#X obj 19 349 +~ 1e-015;
#X obj 19 598 *~;
#X obj 127 643 expr 2/(3*$f1);
#X obj 591 563 loadbang;
#X msg 426 619 set \$1 4;
#X obj 97 425 q8_rsqrt~;
#N canvas 651 150 1006 799 read-windows 0;
#X obj 18 743 *~;
#X obj 364 448 r window-size;
#X obj 156 300 f;
#X obj 102 91 r window-size;
#X obj 102 139 /;
#X obj 195 745 *~;
#X obj 156 255 bang~;
#X obj 17 601 line~;
#X obj 102 164 * 1000;
#X obj 288 224 r speed;
#X obj 178 276 r location;
#X obj 198 302 +;
#X obj 288 272 *;
#X obj 183 508 +;
#X obj 143 446 t f f;
#X msg 17 573 \$1 \, \$2 \$3;
#X obj 17 546 pack 0 0 0;
#X obj 178 371 / 1000;
#X obj 156 394 *;
#X text 188 394 reading location (samples);
#X obj 51 647 / 4;
#X floatatom 364 498 7 0 0 0 - - -;
#X obj 364 474 *;
#X obj 505 347 r transpo;
#X obj 399 474 t b f;
#X obj 19 769 outlet~;
#X obj 195 770 outlet~;
#X text 432 498 stretched window size (samples);
#X obj 808 94 r location;
#X msg 826 278 set \$1;
#X obj 808 140 t b f;
#X obj 826 257 f;
#X obj 754 171 int;
#X obj 754 203 sel 0;
#X msg 813 174 1;
#X msg 813 197 0;
#X obj 754 228 del 300;
#X obj 826 302 s location-set;
#X obj 576 592 r rewind;
#X msg 643 708 \; location \$1;
#X floatatom 111 187 5 0 0 0 - - -;
#X obj 102 115 t f b;
#X obj 142 139 samplerate~;
#X obj 102 208 / 4;
#X obj 233 306 s see-loc;
#X obj 817 116 r see-loc;
#X obj 193 420 / 2;
#X obj 156 420 -;
#X text 229 417 back up 1/2 window;
#X obj 16 647 -~;
#X text 43 6 Read two windows out of the recorded sample \, one 1/4
ahead of the other. The mid point of the front window is specified
by "location". If "speed" is nonzero \, "location" automatically precesses.
;
#X obj 404 673 * -0.5;
#X text 91 637 "back" window 1/4 cycle behind "front" one;
#X text 137 205 computation period (msec) for overlap of 4;
#X text 164 186 msec in a window;
#X obj 404 619 /;
#X obj 404 644 * 1000;
#X obj 404 595 t f b;
#X obj 444 619 samplerate~;
#X text 321 280 loop to precess the location according;
#X text 320 296 to the "speed" parameter.;
#X text 611 31 if location changes \, update number box;
#X text 610 50 in main window via "location-set" \, but;
#X text 613 69 taking care to limit frequency of updates.;
#X obj 593 457 t b f;
#X obj 617 395 samplerate~;
#X obj 593 418 /;
#X obj 505 455 * 1;
#X text 494 312 desired transposition and sample;
#X text 494 329 rate correction for soundfile;
#X obj 593 370 t f b;
#X obj 17 687 tabread4~ sample;
#X obj 194 687 tabread4~ sample;
#X obj 178 347 r insamprate;
#X obj 218 714 tabreceive~ hann;
#X obj 593 348 r insamprate;
#X obj 693 591 r gotoend;
#X obj 404 728 value startloc;
#X floatatom 404 703 5 0 0 0 - - -;
#X obj 576 623 value startloc;
#X floatatom 643 674 5 0 0 0 - - -;
#X obj 693 622 value endloc;
#X floatatom 16 356 5 0 0 0 - - -;
#X obj 34 296 value startloc;
#X floatatom 40 413 5 0 0 0 - - -;
#X obj 58 353 value endloc;
#X obj 16 326 <;
#X obj 40 383 >;
#X obj 16 442 route 0 1;
#X msg 18 497 \; speed 0;
#X obj 40 469 route 0 1;
#X connect 0 0 25 0;
#X connect 1 0 22 0;
#X connect 2 0 11 0;
#X connect 2 0 18 0;
#X connect 2 0 86 0;
#X connect 2 0 87 0;
#X connect 3 0 41 0;
#X connect 4 0 8 0;
#X connect 5 0 26 0;
#X connect 6 0 2 0;
#X connect 6 0 83 0;
#X connect 6 0 85 0;
#X connect 7 0 49 0;
#X connect 7 0 72 0;
#X connect 8 0 40 0;
#X connect 8 0 43 0;
#X connect 9 0 12 0;
#X connect 10 0 2 1;
#X connect 11 0 2 1;
#X connect 11 0 44 0;
#X connect 12 0 11 1;
#X connect 13 0 16 1;
#X connect 14 0 16 0;
#X connect 14 1 13 0;
#X connect 15 0 7 0;
#X connect 16 0 15 0;
#X connect 17 0 18 1;
#X connect 18 0 47 0;
#X connect 20 0 49 1;
#X connect 21 0 20 0;
#X connect 21 0 13 1;
#X connect 21 0 46 0;
#X connect 21 0 57 0;
#X connect 22 0 21 0;
#X connect 23 0 67 0;
#X connect 24 0 22 0;
#X connect 24 1 22 1;
#X connect 28 0 30 0;
#X connect 29 0 37 0;
#X connect 30 0 32 0;
#X connect 30 1 31 1;
#X connect 31 0 29 0;
#X connect 32 0 33 0;
#X connect 33 0 34 0;
#X connect 33 0 36 0;
#X connect 34 0 32 1;
#X connect 35 0 32 1;
#X connect 36 0 35 0;
#X connect 36 0 31 0;
#X connect 38 0 79 0;
#X connect 41 0 4 0;
#X connect 41 1 42 0;
#X connect 42 0 4 1;
#X connect 43 0 16 2;
#X connect 43 0 12 1;
#X connect 45 0 30 0;
#X connect 46 0 47 1;
#X connect 47 0 14 0;
#X connect 49 0 71 0;
#X connect 51 0 78 0;
#X connect 55 0 56 0;
#X connect 56 0 51 0;
#X connect 57 0 55 0;
#X connect 57 1 58 0;
#X connect 58 0 55 1;
#X connect 64 0 67 0;
#X connect 64 1 67 1;
#X connect 65 0 66 1;
#X connect 66 0 64 0;
#X connect 67 0 24 0;
#X connect 70 0 66 0;
#X connect 70 1 65 0;
#X connect 71 0 0 0;
#X connect 72 0 5 0;
#X connect 73 0 17 0;
#X connect 74 0 5 1;
#X connect 74 0 0 1;
#X connect 75 0 70 0;
#X connect 76 0 81 0;
#X connect 78 0 77 0;
#X connect 79 0 80 0;
#X connect 80 0 39 0;
#X connect 81 0 80 0;
#X connect 82 0 88 0;
#X connect 83 0 86 1;
#X connect 84 0 90 0;
#X connect 85 0 87 1;
#X connect 86 0 82 0;
#X connect 87 0 84 0;
#X connect 88 1 89 0;
#X connect 88 1 79 0;
#X connect 90 1 89 0;
#X connect 90 1 81 0;
#X restore 109 133 pd read-windows;
#X obj 137 543 tabsend~ prev-imag;
#X obj 136 567 tabsend~ prev-real;
#X obj 20 8 tabreceive~ prev-real;
#X obj 73 29 tabreceive~ prev-imag;
#X text 272 5 recall previous output amplitude. Its phase will be added
to the phase difference we measure from two windows in the the recorded
sound.;
#X obj 121 69 *~;
#X obj 89 69 *~;
#X obj 89 91 +~;
#X obj 159 94 q8_rsqrt~;
#X obj 159 71 +~ 1e-020;
#X obj 73 119 *~;
#X obj 19 118 *~;
#X obj 29 245 lrshift~ 1;
#X obj 24 269 lrshift~ -1;
#X obj 141 245 lrshift~ 1;
#X obj 133 269 lrshift~ -1;
#X obj 19 325 +~;
#X obj 125 331 +~;
#X text 247 66 divide by the magnitude to make a unit-magnitude complex
amplitude (phase only). The 1e-020 is to prevent overflows. q8_rsqrt~
is reciprocal square root.;
#X text 247 165 Take FT of the window in back. Multiply its conjugate
by the normalized previous output. The result has the magnitude of
the input sound and phase (previous output phase) minus (back window
phase).;
#X text 249 370 Normalize again \, this time taking care to salt each
channel with 1e-015 so that we get a unit complex number even if everything
was zero heretofore.;
#X text 288 427 Now take the FT of the forward window and multiply
it by the unit complex number from above. The magnitude will be that
of the forward window and the phase will be the previous output phase
plus the phase difference between the two analysis windows -- except
that if "lock" is on \, they will be modified to agree progressively
better with the inter-channel phase relationships of the input.;
#X text 387 560 'set' message to block;
#X text 390 577 allows variable size;
#X text 259 126 Read two windows \, one 1/4 length behind the other
\, of the input sound \, with Hann window function (see inside).;
#X obj 52 598 tabreceive~ hann;
#X msg 591 589 \; pd dsp 1 \; window-size 2048 \; transpo 1 \; rewind
bang;
#X connect 0 0 2 1;
#X connect 1 0 2 0;
#X connect 2 0 33 0;
#X connect 2 0 15 0;
#X connect 3 0 5 1;
#X connect 4 0 5 0;
#X connect 5 0 32 0;
#X connect 5 0 15 1;
#X connect 6 0 19 1;
#X connect 7 0 19 0;
#X connect 8 0 10 1;
#X connect 9 0 10 0;
#X connect 10 0 45 0;
#X connect 10 0 44 0;
#X connect 10 0 48 0;
#X connect 11 0 18 1;
#X connect 12 0 16 0;
#X connect 13 0 1 1;
#X connect 13 0 3 1;
#X connect 13 1 0 1;
#X connect 13 1 4 1;
#X connect 14 0 9 1;
#X connect 14 0 7 1;
#X connect 14 1 6 1;
#X connect 14 1 8 1;
#X connect 15 0 26 0;
#X connect 17 0 18 0;
#X connect 18 0 30 0;
#X connect 19 0 46 0;
#X connect 19 0 47 0;
#X connect 19 0 49 0;
#X connect 20 0 1 0;
#X connect 20 0 4 0;
#X connect 21 0 0 0;
#X connect 21 0 3 0;
#X connect 22 0 27 0;
#X connect 23 0 29 0;
#X connect 25 0 17 1;
#X connect 25 0 17 0;
#X connect 25 0 20 0;
#X connect 26 0 12 0;
#X connect 27 0 12 1;
#X connect 28 0 58 0;
#X connect 29 0 24 0;
#X connect 30 0 20 1;
#X connect 30 0 21 1;
#X connect 31 0 14 0;
#X connect 31 1 13 0;
#X connect 34 0 38 1;
#X connect 34 0 38 0;
#X connect 34 0 43 0;
#X connect 35 0 37 1;
#X connect 35 0 37 0;
#X connect 35 0 42 0;
#X connect 37 0 39 1;
#X connect 38 0 39 0;
#X connect 39 0 41 0;
#X connect 40 0 42 1;
#X connect 40 0 43 1;
#X connect 41 0 40 0;
#X connect 42 0 8 0;
#X connect 42 0 7 0;
#X connect 43 0 9 0;
#X connect 43 0 6 0;
#X connect 44 0 48 1;
#X connect 45 0 48 1;
#X connect 46 0 49 1;
#X connect 47 0 49 1;
#X connect 48 0 25 0;
#X connect 49 0 11 0;
#X connect 49 0 11 1;
#X connect 49 0 21 0;
#X connect 57 0 26 1;
#X restore 24 202 pd fft-analysis;
#N canvas 928 92 647 768 phase-tables 0;
#N canvas 0 0 450 300 (subpatch) 0;
#X array prev-imag 4096 float 0;
#X coords 0 1000 4096 -1000 400 300 1;
#X restore 169 326 graph;
#N canvas 0 0 450 300 (subpatch) 0;
#X array prev-real 4096 float 0;
#X coords 0 500 4096 -500 400 300 1;
#X restore 170 17 graph;
#X restore 14 100 pd phase-tables;
#X obj 636 258 s transpo;
#N canvas 0 110 565 454 hann-window 0;
#N canvas 0 0 450 300 (subpatch) 0;
#X array hann 2048 float 0;
#X coords 0 1 2047 0 300 100 1;
#X restore 82 311 graph;
#X obj 378 165 osc~;
#X obj 378 190 *~ -0.5;
#X obj 378 214 +~ 0.5;
#X obj 37 88 r window-size;
#X obj 38 173 /;
#X obj 127 142 samplerate~;
#X obj 38 251 s window-sec;
#X obj 177 204 swap;
#X obj 177 228 /;
#X obj 177 252 s window-hz;
#X obj 49 201 * 1000;
#X obj 49 228 s window-msec;
#X obj 38 115 t f b f;
#X msg 173 92 resize \$1;
#X obj 330 105 r window-hz;
#X msg 382 130 0;
#X obj 330 131 t f b;
#X text 15 8 calculate Hann window table (variable window size) and
constants window-hz (fundamental frequency of analysis) \, window-sec
and window-msec (analysis window size in seconds and msec).;
#X obj 173 116 s hann;
#X obj 331 247 tabwrite~ hann;
#X connect 1 0 2 0;
#X connect 2 0 3 0;
#X connect 3 0 20 0;
#X connect 4 0 13 0;
#X connect 5 0 7 0;
#X connect 5 0 11 0;
#X connect 6 0 5 1;
#X connect 6 0 8 1;
#X connect 8 0 9 0;
#X connect 8 1 9 1;
#X connect 9 0 10 0;
#X connect 11 0 12 0;
#X connect 13 0 5 0;
#X connect 13 0 8 0;
#X connect 13 1 6 0;
#X connect 13 2 14 0;
#X connect 14 0 19 0;
#X connect 15 0 17 0;
#X connect 16 0 1 1;
#X connect 17 0 1 0;
#X connect 17 1 16 0;
#X connect 17 1 20 0;
#X restore 14 124 pd hann-window;
#N canvas 1150 39 770 530 insample 0;
#X obj 37 103 hip~ 5;
#X obj 37 79 adc~ 1;
#X obj 29 44 inlet;
#X obj 99 79 samplerate~;
#X obj 585 95 samplerate~;
#X obj 562 70 bng 15 250 50 0 empty empty empty 17 7 0 10 -262144 -1
-1;
#N canvas 0 0 450 300 (subpatch) 0;
#X array sample 132300 float 2;
#X coords 0 1 132300 -1 500 140 1;
#X restore 226 352 graph;
#X obj 99 103 s insamprate;
#X obj 29 153 tabwrite~ sample;
#X obj 415 121 tabwrite~ sample;
#X obj 585 119 s insamprate;
#X obj 562 251 /;
#X obj 562 275 * 1000;
#X obj 574 228 s samplength;
#X obj 600 251 r insamprate;
#X obj 562 298 s samp-msec;
#X msg 562 141 44100;
#X msg 595 192 \; sample resize \$1;
#X text 26 15 record;
#X obj 457 271 + 25;
#X obj 457 297 value endloc;
#X obj 562 164 * 3;
#X text 556 17 initialise;
#X obj 414 84 sig~ 0;
#X obj 562 42 inlet;
#X obj 38 128 lop~ 10000;
#X connect 0 0 25 0;
#X connect 1 0 0 0;
#X connect 2 0 3 0;
#X connect 2 0 8 0;
#X connect 3 0 7 0;
#X connect 4 0 10 0;
#X connect 5 0 4 0;
#X connect 5 0 16 0;
#X connect 5 0 9 0;
#X connect 11 0 12 0;
#X connect 12 0 15 0;
#X connect 12 0 19 0;
#X connect 14 0 11 1;
#X connect 16 0 21 0;
#X connect 19 0 20 0;
#X connect 21 0 11 0;
#X connect 21 0 13 0;
#X connect 21 0 17 0;
#X connect 23 0 9 0;
#X connect 24 0 5 0;
#X connect 25 0 8 0;
#X restore 15 76 pd insample;
#X obj 15 46 bng 15 250 50 0 empty empty empty 0 -6 0 8 -262144 -1
-1;
#X obj 347 99 s location;
#X obj 241 150 bng 15 250 50 0 empty empty empty 0 -6 0 8 -262144 -1
-1;
#X obj 241 172 s rewind;
#X text 343 -5 location;
#X obj 471 1 loadbang;
#X obj 636 85 vsl 15 128 0.05 5 1 0 empty empty empty 0 -9 0 10 -262144
-1 -1 8261 1;
#X obj 202 96 bng 15 250 50 0 empty empty empty 17 7 0 10 -262144 -1
-1;
#X obj 202 120 s gotoend;
#X text 180 -10 set speed (play);
#X text 260 146 <= goto start;
#X text 221 91 <= goto end;
#X obj 150 64 s speed;
#X floatatom 636 228 5 0 0 0 - - -;
#X obj 350 43 hsl 128 15 0 3000 0 0 empty empty empty -2 -8 0 10 -262144
-1 -1 0 1;
#X obj 15 13 inlet;
#X obj 202 11 inlet;
#X obj 202 65 moses 0;
#X floatatom 202 38 5 0 0 0 - - -;
#X text 14 -13 record;
#X obj 347 16 inlet;
#X text 588 -12 frequency shift;
#X obj 25 251 outlet~;
#X obj 91 12 inlet;
#X text 85 -9 initialise;
#X obj 601 50 / 100;
#X obj 558 87 s rslider1;
#X msg 558 29 100;
#X obj 601 8 inlet;
#X connect 0 0 7 0;
#X connect 1 0 28 0;
#X connect 6 0 5 0;
#X connect 8 0 9 0;
#X connect 11 0 33 0;
#X connect 11 0 5 1;
#X connect 12 0 19 0;
#X connect 13 0 14 0;
#X connect 19 0 3 0;
#X connect 20 0 7 0;
#X connect 21 0 6 0;
#X connect 22 0 24 0;
#X connect 23 0 13 0;
#X connect 23 1 8 0;
#X connect 24 0 23 0;
#X connect 24 0 18 0;
#X connect 26 0 20 0;
#X connect 29 0 5 1;
#X connect 29 0 33 0;
#X connect 31 0 12 0;
#X connect 33 0 32 0;
#X connect 33 0 31 0;
#X connect 34 0 31 0;
#X restore 639 171 pd vocoder;
#X obj 142 231 bng 15 250 50 0 empty empty empty 17 7 0 10 -262144
-1 -1;
#X obj 142 250 s sbutton0;
#X obj 142 270 bng 15 250 50 0 empty empty empty 17 7 0 10 -262144
-1 -1;
#X obj 142 309 bng 15 250 50 0 empty empty empty 17 7 0 10 -262144
-1 -1;
#X obj 142 289 s sbutton1;
#X obj 142 328 s sbutton2;
#X text 123 207 test buttons;
#X obj 426 209 r lrp;
#X obj 426 237 route 0 1 2;
#X msg 446 313 Recording;
#X obj 446 342 s rbutton0;
#X obj 420 388 delay;
#X obj 420 448 s rbutton0;
#X obj 426 260 bng 15 250 50 0 empty empty empty 17 7 0 10 -262144
-1 -1;
#X obj 447 260 bng 15 250 50 0 empty empty empty 17 7 0 10 -262144
-1 -1;
#X obj 468 260 bng 15 250 50 0 empty empty empty 17 7 0 10 -262144
-1 -1;
#X obj 512 358 r samp-msec;
#X msg 420 419 Re-record;
#X msg 371 422 0;
#X obj 371 449 s lrp;
#X msg 497 419 Playback;
#X obj 497 448 s rbutton1;
#X obj 336 536 i;
#X obj 336 490 bng 15 250 50 0 empty empty empty 17 7 0 10 -262144
-1 -1;
#X msg 385 489 stop;
#X msg 385 512 0;
#X floatatom 336 560 5 0 0 0 - - -;
#X obj 365 536 + 1;
#X obj 336 512 metro 1;
#X obj 336 583 s rgauge1;
#X msg 788 107 1;
#X msg 822 107 -1;
#X text 373 559 <= record counter;
#X obj 492 492 bng 15 250 50 0 empty empty empty 17 7 0 10 -262144
-1 -1;
#X msg 541 491 stop;
#X msg 541 514 0;
#X floatatom 492 562 5 0 0 0 - - -;
#X obj 521 538 + 1;
#X obj 492 514 metro 1;
#X text 529 561 <= playback counter;
#X obj 492 585 s rgauge2;
#X obj 622 388 delay;
#X obj 622 448 s rbutton0;
#X msg 622 419 Re-record;
#X msg 573 422 0;
#X obj 573 449 s lrp;
#X obj 699 448 s rbutton1;
#X msg 637 313 Playing;
#X obj 637 342 s rbutton1;
#X msg 524 315 -;
#X msg 580 315 -;
#X obj 757 287 dac~;
#X obj 816 353 s rgauge0;
#X obj 816 278 env~;
#X floatatom 816 302 5 0 0 0 - - -;
#X obj 816 328 spigot;
#X obj 849 278 r lrp;
#X obj 849 301 == 2;
#X obj 658 63 bng 15 250 50 0 empty empty empty 17 7 0 10 -262144 -1
-1;
#X obj 658 39 r next_system_state;
#X obj 820 7 value system_state;
#N canvas 256 555 530 302 postproc 0;
#X obj 37 21 inlet~;
#X obj 38 249 outlet~;
#X obj 38 111 *~;
#X obj 98 52 sig~;
#X obj 97 80 osc~;
#X obj 57 141 delwrite~ delay_line 44100;
#X obj 239 143 delread~ delay_line;
#X obj 388 143 delread~ delay_line;
#X obj 388 113 / 3;
#X obj 240 172 *~ 0.5;
#X obj 387 174 *~ 0.2;
#X obj 39 203 +~;
#X obj 98 22 inlet;
#X obj 239 22 inlet;
#X text 30 0 audio in;
#X text 92 1 modulation;
#X text 220 1 reverberation;
#X text 38 271 audio out;
#X connect 0 0 2 0;
#X connect 2 0 5 0;
#X connect 2 0 11 0;
#X connect 3 0 4 0;
#X connect 4 0 2 1;
#X connect 6 0 9 0;
#X connect 7 0 10 0;
#X connect 8 0 7 0;
#X connect 9 0 11 1;
#X connect 10 0 11 1;
#X connect 11 0 1 0;
#X connect 12 0 3 0;
#X connect 13 0 6 0;
#X connect 13 0 8 0;
#X restore 769 218 pd postproc;
#X msg 346 359 0;
#X msg 315 360 1;
#X text 401 190 listen-rec-play;
#X text 277 434 input level;
#X text 810 372 output level;
#X text 745 306 audio out;
#X obj 816 424 r sslider0;
#X obj 816 448 / 100;
#X obj 816 473 value playspeed;
#X obj 677 106 value playspeed;
#X obj 677 84 bng 15 250 50 0 empty empty empty 17 7 0 10 -262144 -1
-1;
#X text 675 61 <= re-init sound array;
#X text 699 82 <= play sound;
#X obj 800 160 r sslider2;
#X obj 832 185 r sslider3;
#X text 145 438 test sliders;
#X obj 127 466 vsl 15 128 10 300 0 0 sslider0 rslider0 empty 0 -9 0
10 -262144 -1 -1 3941 1;
#X obj 162 466 vsl 15 128 50 500 0 0 sslider1 rslider1 empty 0 -9 0
10 -262144 -1 -1 1411 1;
#X obj 197 465 vsl 15 128 0 50 0 0 sslider2 rslider2 empty 0 -9 0 10
-262144 -1 -1 0 1;
#X obj 232 465 vsl 15 128 0 500 0 0 sslider3 rslider3 empty 0 -9 0
10 -262144 -1 -1 0 1;
#X obj 279 220 s lrp;
#X floatatom 127 605 5 0 0 0 - - -;
#X floatatom 162 605 5 0 0 0 - - -;
#X floatatom 197 605 5 0 0 0 - - -;
#X floatatom 232 605 5 0 0 0 - - -;
#X floatatom 706 508 5 0 0 0 - - -;
#X obj 492 538 f;
#X obj 706 538 swap 1;
#X obj 706 567 /;
#X floatatom 706 593 5 0 0 0 - - -;
#X obj 649 365 *;
#X obj 706 619 t b f;
#X obj 696 138 r sslider1;
#X msg 861 107 100;
#X msg 875 159 0;
#X msg 906 159 0;
#X msg 895 213 30;
#X msg 699 419 Listen again;
#X obj 857 55 t b b;
#X obj 813 56 t b b;
#X text 683 366 <= scale delay;
#N canvas 181 348 401 350 normalise 0;
#X obj 35 16 inlet;
#X obj 35 41 bng 15 250 50 0 empty empty empty 17 7 0 10 -262144 -1
-1;
#X floatatom 36 166 5 0 0 0 - - -;
#X obj 69 215 >;
#X floatatom 84 193 5 0 0 0 - - -;
#X obj 36 242 spigot;
#X msg 84 165 0;
#X text 120 193 <= max;
#X obj 145 224 swap 1;
#X obj 145 251 /;
#X floatatom 145 275 5 0 0 0 - - -;
#X text 183 275 <= gain required;
#X obj 35 68 tabplay~ sample;
#X obj 36 100 abs~;
#X obj 36 127 snapshot~;
#X obj 70 100 bang~;
#X obj 224 90 tabplay~ sample;
#X obj 196 60 bng 15 250 50 0 empty empty empty 17 7 0 10 -262144 -1
-1;
#X obj 224 137 *~;
#X obj 239 113 sig~;
#X obj 224 169 tabwrite~ sample;
#X text 257 136 <= scale the audio;
#X obj 145 300 clip 1 30;
#X connect 0 0 1 0;
#X connect 1 0 12 0;
#X connect 1 0 6 0;
#X connect 2 0 3 0;
#X connect 2 0 5 0;
#X connect 3 0 5 1;
#X connect 4 0 3 1;
#X connect 4 0 8 0;
#X connect 5 0 4 0;
#X connect 6 0 4 0;
#X connect 8 0 9 0;
#X connect 8 1 9 1;
#X connect 9 0 10 0;
#X connect 10 0 22 0;
#X connect 12 0 13 0;
#X connect 12 1 17 0;
#X connect 13 0 14 0;
#X connect 14 0 2 0;
#X connect 15 0 14 0;
#X connect 16 0 18 0;
#X connect 17 0 16 0;
#X connect 17 0 20 0;
#X connect 18 0 20 0;
#X connect 19 0 18 1;
#X connect 22 0 19 0;
#X restore 417 648 pd normalise;
#X obj -3 63 t b b;
#X obj -24 211 bng 15 250 50 0 empty empty empty 17 7 0 10 -262144
-1 -1;
#X obj 417 620 delay 10;
#X obj 450 68 bng 15 250 50 0 empty empty empty 17 7 0 10 -262144 -1
-1;
#X obj 450 119 bng 15 250 50 0 empty empty empty 17 7 0 10 -262144
-1 -1;
#X obj 450 163 s next_system_state;
#X msg 450 140 0;
#X obj 450 6 r sbutton0;
#X obj 461 27 r sbutton1;
#X obj 470 48 r sbutton2;
#X text 471 117 <= reset to start screen;
#X msg 569 614 -1000;
#X obj 569 644 s location-set;
#X obj 450 93 delay 60000;
#X obj 282 339 - 50;
#X obj 282 364 * 2;
#X obj -24 234 delay 10000;
#X obj 142 349 bng 15 250 50 0 empty empty empty 17 7 0 10 -262144
-1 -1;
#X obj 142 368 s sbutton3;
#X obj -26 488 route 0 1 2 3 4;
#X obj 49 513 bng 15 250 50 0 empty empty empty 17 7 0 10 -262144 -1
-1;
#N canvas 1206 233 714 332 robot 0;
#X obj 72 159 s rbutton0;
#X obj 155 184 s rbutton1;
#X obj 155 67 bng 15 250 50 0 empty empty empty 17 7 0 10 -262144 -1
-1;
#X obj 155 39 inlet;
#X msg 72 134 Record;
#X obj 322 262 s rtext1;
#X obj 0 134 s rtext6;
#X msg 155 160 -;
#X msg 238 184 More fun stuff;
#X text 176 64 <= robot;
#X msg 0 108 Sound like a robot;
#X msg 323 213 First record some speech. Then press 'Playback' to hear
yourself speaking like a robot.;
#X msg 394 114 show;
#X obj 394 144 s rimage20;
#X obj 394 85 t b b;
#X obj 99 269 s rslider2;
#X obj 15 269 s rslider1;
#X obj 26 291 s sslider1;
#X obj 111 291 s sslider2;
#X msg 15 232 75;
#X msg 98 230 20;
#X obj 186 273 s rslider3;
#X obj 198 295 s sslider3;
#X msg 185 234 50;
#X obj 163 207 s rbutton2;
#X obj 238 211 s rbutton3;
#X msg 433 114 robot_500x500.gif;
#X connect 2 0 10 0;
#X connect 2 0 4 0;
#X connect 2 0 7 0;
#X connect 2 0 8 0;
#X connect 2 0 11 0;
#X connect 2 0 14 0;
#X connect 2 0 19 0;
#X connect 2 0 20 0;
#X connect 2 0 23 0;
#X connect 3 0 2 0;
#X connect 4 0 0 0;
#X connect 7 0 1 0;
#X connect 7 0 24 0;
#X connect 8 0 25 0;
#X connect 10 0 6 0;
#X connect 11 0 5 0;
#X connect 12 0 13 0;
#X connect 14 0 12 0;
#X connect 14 1 26 0;
#X connect 19 0 16 0;
#X connect 19 0 17 0;
#X connect 20 0 15 0;
#X connect 20 0 18 0;
#X connect 23 0 21 0;
#X connect 23 0 22 0;
#X connect 26 0 13 0;
#X restore 49 535 pd robot;
#X obj 481 69 r sbutton3;
#X text -3 376 <= robot;
#X obj 820 33 route 0 1 2 3 4;
#X obj 765 261 +~;
#X msg -3 127 open_locked C:/VoiceFactory/VoiceFactory.gpd;
#X connect 0 0 143 0;
#X connect 1 0 0 0;
#X connect 2 0 0 0;
#X connect 3 0 0 0;
#X connect 5 0 27 0;
#X connect 5 0 142 0;
#X connect 6 0 14 0;
#X connect 7 0 13 0;
#X connect 7 0 35 0;
#X connect 13 0 22 0;
#X connect 18 0 15 0;
#X connect 19 0 16 0;
#X connect 20 0 17 0;
#X connect 22 0 161 0;
#X connect 22 1 21 0;
#X connect 26 0 28 0;
#X connect 26 1 28 0;
#X connect 28 0 33 0;
#X connect 30 0 120 0;
#X connect 33 0 156 0;
#X connect 34 0 24 0;
#X connect 35 0 36 0;
#X connect 37 0 99 0;
#X connect 38 0 39 0;
#X connect 40 0 42 0;
#X connect 41 0 43 0;
#X connect 45 0 46 0;
#X connect 46 0 51 0;
#X connect 46 1 52 0;
#X connect 46 2 53 0;
#X connect 47 0 48 0;
#X connect 49 0 55 0;
#X connect 49 0 56 0;
#X connect 49 0 58 0;
#X connect 49 0 62 0;
#X connect 51 0 101 0;
#X connect 52 0 37 0;
#X connect 52 0 47 0;
#X connect 52 0 49 0;
#X connect 52 0 61 0;
#X connect 52 0 87 0;
#X connect 52 0 101 0;
#X connect 53 0 71 0;
#X connect 53 0 79 0;
#X connect 53 0 85 0;
#X connect 53 0 88 0;
#X connect 53 0 98 0;
#X connect 53 0 100 0;
#X connect 54 0 49 1;
#X connect 54 0 130 0;
#X connect 55 0 50 0;
#X connect 56 0 57 0;
#X connect 58 0 59 0;
#X connect 60 0 64 0;
#X connect 60 0 65 0;
#X connect 61 0 66 0;
#X connect 61 0 144 0;
#X connect 62 0 63 0;
#X connect 62 0 66 0;
#X connect 62 0 40 0;
#X connect 63 0 60 0;
#X connect 64 0 67 0;
#X connect 65 0 60 1;
#X connect 66 0 60 0;
#X connect 68 0 37 2;
#X connect 69 0 37 2;
#X connect 71 0 76 0;
#X connect 72 0 73 0;
#X connect 72 0 76 0;
#X connect 73 0 126 0;
#X connect 74 0 78 0;
#X connect 75 0 126 1;
#X connect 76 0 126 0;
#X connect 79 0 81 0;
#X connect 79 0 82 0;
#X connect 79 0 137 0;
#X connect 79 0 72 0;
#X connect 79 0 153 0;
#X connect 81 0 80 0;
#X connect 82 0 83 0;
#X connect 85 0 86 0;
#X connect 87 0 86 0;
#X connect 88 0 48 0;
#X connect 91 0 92 0;
#X connect 92 0 93 0;
#X connect 93 0 90 0;
#X connect 94 0 95 0;
#X connect 95 0 93 1;
#X connect 96 0 37 1;
#X connect 97 0 96 0;
#X connect 98 0 166 0;
#X connect 99 0 91 0;
#X connect 99 0 167 0;
#X connect 100 0 34 1;
#X connect 101 0 34 1;
#X connect 106 0 107 0;
#X connect 107 0 108 0;
#X connect 107 0 125 0;
#X connect 109 0 37 2;
#X connect 110 0 109 0;
#X connect 113 0 99 1;
#X connect 114 0 99 2;
#X connect 116 0 121 0;
#X connect 117 0 122 0;
#X connect 118 0 123 0;
#X connect 119 0 124 0;
#X connect 125 0 75 1;
#X connect 125 0 127 0;
#X connect 126 0 74 0;
#X connect 126 0 75 0;
#X connect 127 0 128 0;
#X connect 127 1 128 1;
#X connect 128 0 129 0;
#X connect 129 0 131 0;
#X connect 130 0 79 1;
#X connect 131 0 130 0;
#X connect 131 1 130 1;
#X connect 132 0 37 4;
#X connect 133 0 37 4;
#X connect 134 0 99 1;
#X connect 134 0 99 2;
#X connect 135 0 99 2;
#X connect 136 0 99 1;
#X connect 137 0 84 0;
#X connect 138 0 68 0;
#X connect 138 1 135 0;
#X connect 138 1 136 0;
#X connect 139 0 69 0;
#X connect 139 1 133 0;
#X connect 139 1 134 0;
#X connect 142 0 168 0;
#X connect 142 1 1 0;
#X connect 143 0 158 0;
#X connect 144 0 141 0;
#X connect 145 0 153 0;
#X connect 145 0 155 0;
#X connect 146 0 148 0;
#X connect 148 0 147 0;
#X connect 149 0 145 0;
#X connect 150 0 145 0;
#X connect 151 0 145 0;
#X connect 153 0 154 0;
#X connect 155 0 146 0;
#X connect 156 0 157 0;
#X connect 157 0 34 0;
#X connect 158 0 25 0;
#X connect 159 0 160 0;
#X connect 161 0 6 0;
#X connect 161 1 18 0;
#X connect 161 2 19 0;
#X connect 161 3 20 0;
#X connect 161 4 162 0;
#X connect 162 0 163 0;
#X connect 164 0 145 0;
#X connect 166 1 139 0;
#X connect 166 2 138 0;
#X connect 166 3 110 0;
#X connect 166 4 68 0;
#X connect 167 0 89 0;
#X connect 167 0 89 1;
#X connect 168 0 0 0;
